<svg width="20" height="20" viewBox="0 0 20 20" fill="none" xmlns="http://www.w3.org/2000/svg">
<circle cx="10" cy="10" r="9.5" fill="#D20515" stroke="white"/>
<g clip-path="url(#clip0_68_29)">
<rect width="12" height="12" transform="translate(4 4)" fill="white"/>
<path d="M16 4H4V16H16V4Z" fill="#D20515"/>
<path fill-rule="evenodd" clip-rule="evenodd" d="M4 10C4 6.68629 6.68629 4 10 4C13.3137 4 16 6.68629 16 10C16 13.3137 13.3137 16 10 16C6.68629 16 4 13.3137 4 10ZM15.5 10C15.5 6.96244 13.0375 4.5 10 4.5C6.96244 4.5 4.5 6.96244 4.5 10C4.5 11.4692 5.07608 12.8039 6.01469 13.7905C6.84416 13.3231 7.72178 12.9481 8.61996 12.6763C8.83137 12.5982 8.89525 11.8651 8.68552 11.6344C8.08217 10.9704 7.82054 10.311 7.82164 9.10665C7.76393 8.49217 7.97233 7.88242 8.39407 7.4318C8.7877 7.01123 9.33195 6.76692 9.8932 6.75H10.1367C10.7092 6.76692 11.2534 7.01123 11.647 7.4318C12.0687 7.88242 12.2771 8.49217 12.2205 9.0833C12.2205 10.3123 11.9595 10.9697 11.3555 11.6344C11.1458 11.8651 11.2097 12.5982 11.4071 12.6715C12.3088 12.9448 13.178 13.315 13.9996 13.7754C14.9298 12.7904 15.5 11.4618 15.5 10Z" fill="white"/>
</g>
<defs>
<clipPath id="clip0_68_29">
<rect width="12" height="12" fill="white" transform="translate(4 4)"/>
</clipPath>
</defs>
</svg>
