<svg width="22" height="22" viewBox="0 0 22 22" fill="none" xmlns="http://www.w3.org/2000/svg">
<circle cx="12" cy="12" r="9.5" fill="#D20515" stroke="white"/>
<g clip-path="url(#clip0_68_28)">
<path d="M18.4138 7H6.41379V17H18.4138V7Z" fill="white"/>
<path d="M18.4138 7H6.41379V17H18.4138V7Z" fill="#D20515"/>
<path d="M16.3126 12.2692C16.3192 12.2944 16.2979 12.3117 16.2543 12.3447L16.2278 12.36L16.2368 12.3783C16.2429 12.3901 16.2325 12.4079 16.214 12.4172L16.1742 12.438C16.1562 12.4478 16.1363 12.4459 16.1306 12.434L16.1221 12.4172L16.0718 12.4429L16.0799 12.4607C16.0856 12.4725 16.0747 12.4903 16.0557 12.4991L16.0154 12.5189C15.997 12.5277 15.9775 12.5253 15.9718 12.5129L15.9647 12.4972C15.8098 12.5731 15.6363 12.6535 15.4576 12.7399L15.4676 12.7635C15.4737 12.7754 15.4624 12.7926 15.4444 12.8015L15.4036 12.8213C15.3851 12.8301 15.3652 12.8272 15.3605 12.8153L15.3496 12.7917L15.2922 12.8207L15.3031 12.8449C15.3083 12.8573 15.2979 12.874 15.279 12.8834L15.2387 12.9026C15.2197 12.9115 15.2008 12.9091 15.1951 12.8972L15.1846 12.874C15.1036 12.9076 15.015 12.9234 14.9505 12.7966C14.923 12.7384 14.9216 12.6047 14.9003 12.5337C14.8914 12.5107 14.8716 12.4942 14.8481 12.4902C14.0605 12.3329 13.7936 12.508 13.2889 12.3783C13.1301 12.3378 13.0439 12.1859 12.8481 12.1834C12.4216 12.1701 12.296 12.1765 11.8335 12.1583C11.8136 12.2278 11.8112 12.2431 11.8112 12.2431L10.1856 12.2352L10.4339 12.362L10.5135 13.1083C10.5135 13.1083 10.4477 13.1281 10.4287 13.1305C10.4444 13.2785 10.4595 13.4808 10.4676 13.6623C10.4747 13.8251 10.4828 13.9948 10.4813 14.1028C10.4818 14.1731 10.4655 14.2425 10.4339 14.3046C10.403 14.3588 10.3615 14.4057 10.3121 14.4422C10.2974 14.4536 10.2344 14.498 10.1619 14.5409C10.0894 14.5838 10.0022 14.6331 9.9581 14.6548C9.96474 14.6747 9.9725 14.6941 9.98133 14.713C8.9927 15.2098 7.76759 15.3795 7.3709 16.1697C7.32351 16.2615 7.1638 16.2136 7.15906 16.115C7.15906 16.0696 7.15906 15.9961 7.15906 15.9552H7.14484C7.13204 15.9552 7.12209 15.9369 7.12351 15.9152V15.8688C7.12351 15.8476 7.13583 15.8308 7.14816 15.8313H7.16522C7.17025 15.7857 7.17864 15.7405 7.19034 15.6962L7.17517 15.6908C7.16332 15.6863 7.15953 15.6661 7.16617 15.6459L7.18086 15.6025C7.18797 15.5822 7.20266 15.5699 7.21545 15.5738L7.23015 15.5793C7.30076 15.4081 7.43678 15.3326 7.50029 15.1703L7.49034 15.1664C7.47754 15.1614 7.47375 15.1417 7.48086 15.1215L7.49555 15.0776C7.50266 15.0574 7.51782 15.045 7.53015 15.0495L7.54105 15.0534C7.55053 15.0297 7.56143 15.0041 7.57375 14.9779L7.56048 14.9686C7.5491 14.9612 7.5491 14.9409 7.56048 14.9227L7.58465 14.8837C7.59508 14.866 7.61261 14.8571 7.62351 14.8645L7.6292 14.8679H7.63489C7.6382 14.8679 7.63962 14.8679 7.64294 14.864C7.64908 14.8569 7.65557 14.8502 7.66237 14.8438C7.72436 14.7961 7.80865 14.7949 7.87185 14.8408C7.93394 14.8798 8.17659 15.0238 8.41024 14.8053C8.79555 14.4452 9.24626 13.9563 9.58512 13.9395C9.49317 13.7334 9.33347 13.3012 9.31545 13.1419L9.20171 13.1167C9.14247 12.984 8.99838 12.3709 8.95763 11.9101C8.95763 11.9101 8.91024 11.4134 8.95763 11.2388C8.93157 11.2358 8.88369 11.2767 8.87043 11.2772C8.80835 11.1189 9.00977 9.78058 9.2093 9.39088L9.51498 9.2641C9.48323 9.26015 9.26237 9.24979 8.68133 9.20046C8.35763 9.49891 7.98275 9.82103 7.7927 9.99664C7.76048 10.0213 7.70645 10.2127 7.70645 10.2127C7.70645 10.2127 7.61166 10.3005 7.52114 10.3651C7.40361 10.451 7.11593 10.5171 7.05337 10.4145C7.03915 10.3893 7.04152 10.3785 7.05337 10.3651C7.09792 10.3158 7.26617 10.2329 7.32304 10.1219C7.23109 10.1713 7.12872 10.2206 7.04863 10.2122C7.01356 10.2122 6.99555 10.121 7.04057 10.1047C7.16285 10.0509 7.25953 10.0277 7.33157 9.92216C7.40361 9.81659 7.48512 9.75295 7.59602 9.75048C7.59602 9.75048 8.13631 9.01597 8.45479 8.66524C8.54294 8.56954 8.70645 8.60111 8.70645 8.60111L8.73393 8.48962C8.73393 8.48962 9.82398 8.35397 10.3339 8.52909C10.3221 8.20795 10.4605 7.78125 10.9434 7.78125C11.1918 7.78125 11.5572 8.00965 11.6069 8.28688C11.6221 8.37222 11.5747 8.42895 11.5496 8.53698C11.5064 8.70026 11.5666 8.88229 11.5496 8.93901C11.5353 8.98588 11.4846 8.98193 11.4406 9.04557C11.402 9.1083 11.3685 9.17431 11.3406 9.24288L11.2756 9.40123L10.9354 9.37558C10.8112 9.65528 10.5562 10.225 10.4662 10.7899C10.7335 10.8135 11.9448 10.9961 11.9448 10.9961L11.9742 11.0987C11.9742 11.0987 12.4846 11.1623 12.9022 11.3695C12.997 11.3932 13.2301 11.3567 13.3842 11.4302C13.3946 11.4238 13.4202 11.3966 13.4316 11.3892C13.9761 11.5638 14.4268 11.8608 14.9515 11.993C14.9515 11.993 15.197 12.0552 15.2794 12.0719C15.4186 12.1001 15.5593 12.1188 15.7008 12.1282C15.869 12.142 15.9624 12.1395 16.0851 12.1469C16.1723 12.1523 16.2785 12.137 16.3131 12.2692M17.1388 10.5938C16.766 10.5938 16.4638 10.9085 16.4638 11.2969C16.4638 11.6852 16.766 12 17.1388 12C17.5116 12 17.8138 11.6852 17.8138 11.2969C17.8138 11.1101 17.7425 10.9311 17.6156 10.7992C17.4887 10.6673 17.3166 10.5934 17.1374 10.5938H17.1388Z" fill="white"/>
</g>
<defs>
<clipPath id="clip0_68_28">
<rect width="12" height="10" fill="white" transform="translate(6 7)"/>
</clipPath>
</defs>
</svg>
