<svg width="12" height="12" viewBox="0 0 12 12" fill="none" xmlns="http://www.w3.org/2000/svg">
<g clip-path="url(#clip0_15_1799)">
<path d="M12 0H0V12H12V0Z" fill="#000E14"/>
<path fill-rule="evenodd" clip-rule="evenodd" d="M7.25 2.5C7.25 1.25736 8.25735 0.25 9.5 0.25C10.7427 0.25 11.75 1.25736 11.75 2.5C11.75 3.74264 10.7427 4.75 9.5 4.75C8.5451 4.75 7.7291 4.15513 7.40245 3.31574L4.41086 4.81152C4.62581 5.15639 4.75 5.5637 4.75 6C4.75 6.32105 4.68276 6.6264 4.56159 6.9027L7.54105 8.39245C7.9275 7.7103 8.66 7.25 9.5 7.25C10.7427 7.25 11.75 8.25735 11.75 9.5C11.75 10.7427 10.7427 11.75 9.5 11.75C8.25735 11.75 7.25 10.7427 7.25 9.5C7.25 9.27515 7.283 9.058 7.34435 8.85315L4.31047 7.33615C3.90066 7.89055 3.24231 8.25 2.5 8.25C1.25736 8.25 0.25 7.24265 0.25 6C0.25 4.75736 1.25736 3.75 2.5 3.75C3.12248 3.75 3.68593 4.00279 4.09328 4.4113L7.2728 2.82154C7.25775 2.71652 7.25 2.60917 7.25 2.5ZM4.11353 6.6787L4.1118 6.6778L3.99864 6.90415C3.69213 7.4111 3.13564 7.75 2.5 7.75C1.5335 7.75 0.75 6.9665 0.75 6C0.75 5.0335 1.5335 4.25 2.5 4.25C3.4665 4.25 4.25 5.0335 4.25 6C4.25 6.24065 4.20142 6.47 4.11353 6.6787ZM11.25 2.5C11.25 1.5335 10.4665 0.75 9.5 0.75C8.5335 0.75 7.75 1.5335 7.75 2.5C7.75 3.4665 8.5335 4.25 9.5 4.25C10.4665 4.25 11.25 3.4665 11.25 2.5ZM9.5 7.75C10.4665 7.75 11.25 8.5335 11.25 9.5C11.25 10.4665 10.4665 11.25 9.5 11.25C8.5335 11.25 7.75 10.4665 7.75 9.5C7.75 8.5335 8.5335 7.75 9.5 7.75Z" fill="white"/>
</g>
<defs>
<clipPath id="clip0_15_1799">
<rect width="12" height="12" fill="white"/>
</clipPath>
</defs>
</svg>
